<?xml version="1.0" encoding="UTF-8"?>
<svg id="Calque_2" data-name="Calque 2" xmlns="http://www.w3.org/2000/svg" viewBox="0 0 47.42 49.32">
  <g id="Calque_1-2" data-name="Calque 1">
    <g id="B9rlEc">
      <path fill="#C9A84C" d="M47.3,38.46C46.39,26.38,38.6,1.73,24.53.09c-6.24-.85-9.97,4.47-13.59,8.87-.27.33-.45.72-.47,1.14-.05.84.22,1.59.95,1.97.53.28,1.18.22,1.66-.13,4.94-3.58,8.59-7.45,14.33-1.88,6.62,6.54,12.85,16.49,15.7,25.33,1.69,3.57,2.47,13.3-4.1,10.82-4.34-1.79-6.51-6.36-9.65-9.48-6.3-7.29-8.41,1.87-13.88,4.1-2.14,1.31-4.61.96-6.66.48-.24-.07-.47-.15-.69-.25-1.12-.51-2.02-1.49-2.37-3.39-.54-2.98-.23-8.33.48-12.58.08-.46.19-1.1.01-1.53,0-.01-.24-.21-.26-.22-.13-.06-.78.01-.95.42-3.59,8.3-7.43,15.15-3.14,20.92,2.13,2.86,3.86,4.42,7.06,4.59.53.03,1.07.04,1.61.04.51-.02,1.03-.07,1.56-.15.67-.09,1.33-.25,1.97-.45.21-.07.43-.14.64-.22,5.33-1.11,7.65-9.55,13.66-6.64,3.18,1.58,5.01,5.73,8.69,6.98,6.17,2.31,11.2-4.58,10.21-10.39Z"/>
    </g>
  </g>
</svg>
