<?xml version="1.0" encoding="UTF-8"?>
<svg id="Calque_2" data-name="Calque 2" xmlns="http://www.w3.org/2000/svg" viewBox="0 0 799.25 548.64" opacity="0.65">
  <defs>
    <style>
      .cls-1 {
        fill: #E8E4DA;
        fill-opacity: 0.55;
        stroke: none;
        
        
      }
    </style>
  </defs>
  <g id="Calque_1-2" data-name="Calque 1">
    <g id="gqmRRS">
      <g>
        <path class="cls-1" d="M798.73,161.87c-.83,3.2-2.59,5.56-4.68,8.11l-27.03,32.94c-13.54,16.5-31.56,32.09-52.71,37.28-3.83.94-8.62,2.25-12.41,2.4-28.96,1.15-38.65.46-65.82-8.01-12.98-4.05-25.71-7.49-39.48-8.35-12.2-.76-24.31-1.23-36.64-.16l-8,.7-11.02.82-10.12.95c-3.29.31-6.63.61-9.93,1.13l-28.57,4.56c-12.02,1.92-23.38,4.55-35.03,7.95-10.26,3-23.45,15.15-23.16,26.86.25,10.44,2.91,21.28,8.05,30.32,10.65,18.74,28.06,33.86,35.75,54.37,1.29,3.44,1.83,7.35,2.45,10.82,2.04,11.47-1.78,23.35-14.64,26.24-4.49,1.01-9.24,1.46-13.93.45l-27.34-5.88c-6.47-1.39-12.94-2.64-19.57-3.42l-7.07-.83-10.04-1.11c-11.03-1.22-21.5-3.3-32.23-5.96-15.63-3.87-40.37-19.9-51.07-30.85l-11.35-11.63c-2.97-3.04-6.44-5.62-9.81-8.27-13.42-10.56-25.18-17.95-34.17-32.63-14.54-23.73,1.54-47.81-9.26-69.89-4.96-10.13-22.23-13.79-32.74-15.28-3.29-.47-7.22-1.36-10.54-1.39l-67.4-.61c-7.19-.06-14.46-3.3-20.43-6.77-9.48-5.52-7.34-27.75-5.73-36.75l4.41-24.6c2.57-14.34,6.49-28.09,12.77-41.17,5.35-11.16,12.7-20,21.8-28.24,12.61-11.41,25.59-21.69,39.66-31.27l21.41-14.57c8.37-5.7,21.15-11.64,31.08-8.64,8.72,2.63,15.46,7.06,21.87,13.32,20.65,20.15,38.27,42.38,54.11,66.57,10.05,15.34,19.39,31.16,2.78,44.41-7.59,6.05-14.65,12.36-18.86,21.35-3.67,7.86-4.6,19.33,1.54,25.88,7.61,8.12,22.08,6.42,31.09,2.89,9.09-3.56,15.11-11.71,17.31-20.89.8-3.33,1.27-6.78,1.69-10.18l1.23-9.96c1.35-10.95,9.17-17.42,18.73-21.07l15.43-5.89c22.78-8.69,47.89-23.51,66.93-38.88,11.45-9.24,21.98-18.43,32.06-29.05,12.86-13.56,21.56-29.43,26.42-47.82.51-1.21,2.76-1.88,2.32-.13-8.82,24.81-15.38,37.14-33.76,55.02-32.7,31.81-65.43,52.98-108.59,68.32-18.36,6.52-17.79,15.91-18.83,30.34-.76,10.54-5.13,20.7-13.45,27.31-6.14,4.88-14.3,7.85-22.27,7.62-2.89-.08-6.62-1.2-9.21-1.89-15.68-4.19-15.05-24.16-9.4-33.63,10.11-16.94,23.46-20.9,25.99-30,3.42-12.3-3.46-22.22-10.1-32.55-15.13-23.51-32.43-45.08-52.25-64.81-5.23-5.21-10.64-9.96-17.3-12.88-15.71-6.87-31.35,2.87-43.96,11.57-13.14,9.06-26.05,17.53-38.09,28l-17.15,14.93c-19.54,17.01-27.09,44.54-31.73,69.2-3.49,18.55-5.65,28.19-4.48,46.8.32,5.01,2.68,9.12,7.03,11.24s8.92,3.91,13.53,4.36l13.03,1.26c4.13.4,7.96.03,12.14-.12,15.44-.54,46.75-1.17,60.62,2.06l7.45,1.74c13.89,3.23,23.51,9.57,26.79,23.84,1.68,7.32.86,13.9.37,21.05-.48,7.03-.39,13.88-.23,21.13.64,28.81,37.31,45.67,50.21,59.53,12.16,13.07,24.89,24.06,40.57,32.77,8.18,4.55,16.21,7.59,25.56,9.39,12.34,2.38,24.46,4.27,37.02,5.68,9.67,1.09,18.95,2.52,28.5,4.56l24.08,5.15c5.23,1.12,10.57.96,15.8-.08,6.99-1.38,11.46-7.29,12.07-14.41,2.42-28.5-20.87-48.24-35.71-70.79-6.14-9.33-11.99-26.31-10.28-37.24,1.95-12.5,14.84-23.35,25.96-26.72,16.03-4.86,50.7-10.95,67.41-12.68l10.74-1.11,11.04-.94,13.96-.96c11.7-.81,23.22-.69,34.74.12,28.91,2.05,53.72,15.24,72.57,16.25l12.63.68c4.31.23,7.91.37,12.19.02l8.68-.7c7.97-.64,15.67-2.91,22.86-6.01,13.03-5.61,23.4-13.74,32.88-24.21,14.3-15.79,27.17-31.98,40.32-48.43Z"/>
        <path class="cls-1" d="M758.17,195.5l40.72-50.64c-12.73,20.39-39.95,53.73-57.61,69.39-11.66,10.34-28.75,16.32-44.28,17.43-6.97.5-20.47.28-26.93-1l-18.44-3.65c-18.97-3.75-37.33-8.54-56.64-10.37l-12.98-1.23c-4.23-.4-7.92-.12-12.19.06l-15.79.65-11.13.97-10.91.99-8.1.82-34.4,4.49c-12.15,1.58-23.6,4.36-35.4,7.51-8.06,2.15-15.84,4.63-22.84,8.93-23.2,14.24-11.84,46.33-.43,64.88,10.27,16.7,15.88,22.08,26.5,40.76,2.62,4.6,4.35,10.32,3.9,15.38-1.5,16.86-23.51,15.52-35.32,14.31l-10.07-1.03-10-1.03-8.17-.92c-14.4-1.62-28.11-4.05-42.17-7.96-19.91-5.54-32.62-17.51-46.98-30.99l-18.58-17.45c-10.68-10.03-17.34-18.49-22.7-32.06-4.34-11-2.38-22.33,1.77-32.95,11.87-30.33,42.11-32.33,70.31-41.35,11.08-3.54,20.25-11.66,24.53-22.49,2.54-6.41,4.29-12.64,5.97-19.24,6.76-26.54,18.74-36.01,41.03-50.92,16.6-11.12,32.4-22.38,47.58-35.34l23.27-19.86c11.68-9.97,20.87-22.23,26.49-36.74l9.2-23.76c-1.59,12.15-6.99,22.87-12.61,33.74-8.64,16.72-16.82,23-30.19,34.78-18.84,16.6-38.25,31.56-59.02,45.66-17.51,11.89-35.96,23.26-41.64,44.62l-3.14,11.79c-8.1,30.44-19.37,36.98-49.15,44.9l-12.64,3.36c-19.47,5.18-33.99,15.3-39.88,35.23-3.8,12.83-2.87,25.78,3.85,37.53,3.45,6.04,7.27,11.87,12.37,16.67l14.51,13.65c15.25,14.35,32.1,32.78,52.48,38.42,17.74,4.91,35.16,7.84,53.38,9.74l9.16.96,9.12.94c9.08.94,27.99,2.68,33.5-5.42,7.23-10.61-6.09-30.71-13-40.25-15.1-20.86-37.98-52.72-24.12-78.36,3.55-6.56,9.9-10.9,16.69-13.8,16.6-7.09,33.68-11.26,51.6-13.7l26.32-3.58,8.05-.9,9.89-.98,12.04-1.04,11.07-.91c8.3-.68,32.87-.57,40.89.78l29.04,4.89,24.93,5.12c20.3,4.17,28.14,6.18,49.77,4.54,13.32-1,31.41-7.96,40.68-17.19l16.87-16.8Z"/>
        <path class="cls-1" d="M798.9,126.1c-11.23,18.76-24.83,35.8-38.95,52.78-5.72,6.88-11.64,12.85-18.19,18.82-9.64,8.8-20.44,15.09-33.06,18.99-8.99,2.78-25.07,2.61-34.72,1.84l-10.17-.81c-5.25-.42-10.62-1.23-15.83-2.19l-15.11-2.79-33.25-5.64c-9.1-1.54-33-1.66-42.76-.99l-13.97.97-11.02.96-9.89,1.02-8.95,1.02-25.6,3.22c-23.32,2.93-46.05,6.19-68.81,12.06-6.03,1.55-15.6,5.08-18.44,10.81-1.95,3.93-2.98,9.28-2.24,13.71,3,17.89,8.46,34.88,17.13,50.59l11,19.93c4.17,7.55,12.21,20.89,9.35,28.93-2.53,7.1-9.81,9.62-16.43,10.56l-9.01,1.29c-5.75.82-11.25.58-17.08-.04l-9.27-.98c-11.05-1.17-21.3-4.54-31.59-8.77-23.78-9.78-47.96-40.11-60.06-62.56-3.03-5.63-3.71-12.64-2.93-19.15.74-6.13,4.27-11.98,7.68-17.32,7.66-11.98,31.05-18.54,44.55-21.87,7.61-1.88,15.01-4.24,22.33-6.64,11.01-3.61,17.8-11.34,19.52-23l3.03-20.56c2.43-16.53,8.77-30.87,20.6-42.63s24.56-23.73,38.15-34.68l33.23-26.79c26.76-21.58,39.53-39.56,47.27-74.36.51-1.29,1.24-.52,1.79.91-4.58,21.38-14.11,40.13-28.12,56.21-6.65,7.63-14.26,13.61-22.07,19.97l-39.08,31.85c-10.82,8.82-20.28,18.13-30.12,28.04-5.59,5.63-10.91,11.8-13.78,19.28-5.01,13.04-6.83,26.36-8.67,40.16-2.89,21.74-17.21,26.34-36.1,31.66l-11.81,3.32c-10.42,2.93-20.57,5.62-29.98,10.95-14.6,8.27-21.76,29.51-12.96,46.13,10.22,19.31,24.82,36.23,41.84,50.03,6.6,5.35,13.75,9.16,21.64,11.56,9.58,2.91,18.94,5.69,28.9,6.81l8.19.92c3.55.4,8.12.38,11.67-.02l9.2-1.03c3.43-.38,7.64-1.6,10.9-2.71,13.44-4.57,4.72-22.73.19-31.02l-13.77-25.25c-8.86-16.23-15.43-33.04-17.33-51.85-.44-4.4,1.71-10.3,4.18-13.74,3.5-4.86,9.15-7.14,14.63-8.86,18.88-5.94,31.83-8.36,51.56-10.92l47.69-6.2,8.98-1,9.89-1,11.04-.99,12.09-.91c11.73-.89,30.93-.48,42.67.94,13.71,1.67,26.66,4.34,40.18,7.08,19.2,3.89,57.68,8,75.39,1.14,13.07-5.06,24.01-13.48,33.71-23.49,9.04-9.32,17.09-18.75,24.88-29.09l26.08-34.65Z"/>
        <path class="cls-1" d="M97.26,228.17c-16.65-6.02-25.48-13.39-36.95-26.7-14.94-17.34-36.22-20.15-57.91-15.96l-1.68-1.54,8.22-1.34c6.92-1.13,13.91-.94,20.93.16,14.92,2.33,26.37,11.01,35.77,22.25,9.37,11.2,21.55,18.94,35.33,22.8,8.22,2.3,15.67,2.36,23.95,1.33l9.97-1.24,16.01-2c11.19-1.4,22.44-1.43,33.59-.73,4.02.25,8.29,1.83,12.01,3.16,8.78,3.14,15.07,9.3,19.06,17.95,7.54,16.34,4.21,32.49,18.3,49.54,7.28,8.8,15.24,16.94,24.79,23.38,13.61,9.18,26.58,18.07,38.88,29.01,11.66,10.37,23.74,18.71,37.9,25.33,10.43,4.88,20.86,7.61,32.43,8.65l9.96.89,9.01.97c13.44,1.45,26.27,4.6,39.05,8.74l21.27,6.88c9.25,2.99,18.91,5.93,28.57,6.15,12.4.28,19.87-9.6,19.48-20.93-.83-24.36-6.72-40.65-20.73-60.53l-16.14-22.9c-5.11-7.25-8.56-15.55-9.18-24.4-.32-4.49,1.33-8.87,3.63-12.46,8.44-13.18,35.72-20.38,50.53-22.43l30.61-4.22,8.07-.94,8.93-.98c3.55-.39,7.57-.94,11.04-.95l40.63-.2c9.52,1.57,18.23,3.15,27.33,5.93,20.44,6.24,47.84,13.33,68.9,11.8,9.53-.7,16.08-2.63,25.21-5.47,8.62-2.69,16.11-7.43,23.67-12.43,8.69-6.87,16.3-14.09,24.04-22.08l27.18-33.8c-13.23,22.77-35.41,47.1-57.33,61.65-16.92,8.38-23.13,11.86-42.1,13.96-4.65.52-9.79.68-14.47.16l-8.13-.89c-24.68-2.71-54.26-14.65-69.93-16.08l-12.07-1.1c-15.22-1.39-8.66-.53-21.07,0l-13.79.58-10.16.92-9.85,1.04-8.9,1.07c-14.83,1.79-54.53,7.14-65.83,14.86-3.91,2.68-8.81,6.1-11.24,9.87-7.93,12.33.37,29.02,7.96,39.65l13.37,18.74c8.42,11.8,14.74,22.58,18.4,36.77,4.14,16.05,8.21,40.2-12.05,46.53-4.46,1.39-9.29,1.7-13.95.53-7.58-1.9-14.79-3.75-22.13-6.1l-8.37-2.68c-16.58-5.31-32.9-10.54-50.36-12.36l-8.1-.84-11.93-1.16c-13.96-1.36-26.64-6.08-38.86-12.47-24.69-12.9-38.64-30.91-62.11-45.75-15.65-9.89-29.54-21.55-38.96-37.8-3.54-6.11-5.06-13.3-6.9-20.13l-4.49-16.64c-2.72-10.08-9.68-18.24-19.75-21.37-3.94-1.23-8.76-2.76-12.8-2.86-13.69-.35-21.79-.49-34.94,1.2l-15.92,2.04-7.26.9c-11.08,1.37-16.9.94-27.62-2.94Z"/>
        <path class="cls-1" d="M689.2,278.5c43.49,4.94,81.18-21.58,107.92-53.63l1.41.16c-16.78,20.19-31.21,32.76-54.35,44.98-28.04,14.81-56.79,12.73-86.49,4.13l-29.6-8.57c-12.88-3.73-25.68-5.86-39.08-4.45l-9.03.95c-17.38,1.83-33.54,6.9-50.27,11.46l-11.66,3.18c-2.61.71-6.9,1.74-8.61,3.19l-3.66,3.1c-1.32,1.12-3.27,5-3.25,6.76l.1,9.25c.01,1.23,1.09,3.65,1.5,4.44-.23.4-.92,2.61-.65,3.55l13.37,47.64c7.12,25.35,15.13,57.3,18.29,83.26.75,6.12,2.12,13.09-2.03,18.5-2.05,2.68-8.7,2.52-11.94,1.41-25.21-8.63-58.18-26.51-82.09-39.28-18.61-9.94-44.07-14.78-65.15-17.72l-14.05-1.96c-16.19-2.26-25.03-3.96-39.75-11.47-9.75-4.98-18.5-10.92-27.12-17.7-5.28-4.15-10.01-8.78-15.74-12.33l-47.55-29.49c-14.94-9.27-28.72-18.67-42.68-29.25-17.27-13.09-36.18-21.26-57.21-26.04-16.79-3.81-32.23-9.49-47.73-16.85-9.46-4.49-17.7-10.07-26.29-15.9C38.64,228.17,21.01,218.76.03,213.82c1.77-4.22,30.79,9.49,33.21,10.78,9.4,4.99,18.05,10.36,26.77,16.33,6.26,4.29,12.41,8.39,19.18,11.76,13.3,6.63,28.33,12.05,42.78,16.09l20.47,5.73c14.46,4.04,27.78,10.3,39.86,19.07l24.86,18.06c6.31,4.59,12.81,8.44,19.53,12.61l49.28,30.57c5.35,3.32,9.85,7.44,14.8,11.2l14.87,11.31c11.59,8.81,31.81,16.49,46.28,18.5l25.45,3.53c14.58,2.02,28.48,4.98,42.58,9.58,11.88,3.88,22.55,9.6,33.51,15.6,12.32,6.75,24.41,12.71,37.06,18.75s22.36,10.19,36.38,13.97c1.51.41,5.01-1.03,5.85-2.26,5.96-8.72-11.18-76.68-15.08-90.75l-6.1-22.02-8.37-29.62c-2.56-9.05-3.37-18.45-.46-27.12,1.98-5.89,7.69-8.14,13-9.6l44.02-12.11c6.87-1.89,13.99-3,21.15-3.74l9.14-.95c7.56-.79,22.54.27,29.46,2.22l41.29,11.66c9.37,2.64,18.6,4.43,28.41,5.54Z"/>
        <path class="cls-1" d="M20.47,205.99c-6.31-1.64-21.06-1.78-19.58-4.09,16.36-.33,31.44,5.32,44.86,14.28l28.11,18.77c10.79,7.2,22.39,12.51,35.26,14.63,2.26.37,5.73,1.11,7.78,1.13l41.02.27c4.19.03,13.41,2.56,17.99,4.2,5.07,1.82,9.64,5.41,12.56,9.86,5.78,8.79,11.15,17.33,18.12,25.12,7.96,8.9,16.06,17.06,24.98,24.99,5.23,4.65,11.11,8.45,17.04,12.1l26,16.01c9.28,5.72,17.16,12.41,25.42,19.53,20.78,17.93,40.12,26.33,67.78,28.89l10.07.93c25.09,2.33,43.07,7.7,66.15,17.31l19.65,8.18c11.8,4.92,22.7,9.14,36.07,7.55,5.68-.68,10.54-7.53,10.85-13.17.44-7.91.68-15.64-.09-23.37-2.61-26.21-7.05-42.95-19.99-65.63l-9.87-17.31c-1.31-2.31-2.5-4.88-3.62-7.41-4.52-10.22-7.08-19.35,1.24-28.81,4.67-5.3,11.5-8.05,18.48-10.38l29.89-5.14c15-2.58,29.28-6.45,44.47-7.3l11.66-.65c4.63-.26,8.63-.5,13.24-.04,21.21,2.09,15.59,1.08,36.49,6.81,39.76,10.9,79,21.17,116.3-3.3,20.1-13.19,35.42-30.59,49.77-49.14l-1.06,3.74c-16.27,20.52-34.19,39.7-57.62,52.18-31.06,16.53-65.45,10.08-97.8.98-10.52-2.96-20.53-5.55-31.23-7.96-3.78-.85-8.13-.78-11.96-1.21-6.88-.78-13.18-.59-20.04-.01l-6.93.59c-2.61.22-5.47.41-8.04.85l-33.22,5.69c-8.36,1.43-16.31,2.99-24.82,4.2-7.15,1.01-14.46,2.64-20.6,6.01-8.08,4.44-12.15,12.81-9.96,21.64,3.68,14.9,3.78,13.32,11.89,27.05,19.3,32.68,26.35,56.79,25.64,95.13-.02,1.19-1.09,3.83-1.41,4.97-1.57,5.67-5.12,10.97-11.25,12.43-6.83,1.62-14.41,1.03-21.11-1.5l-15.97-6.04-15.44-6.57c-25.28-10.75-42.08-15.98-69.7-18.47l-9.12-.82c-26.46-2.39-49.48-11.76-69.27-29.55-9.27-8.33-18.57-15.52-29.17-21.91l-18.07-10.9c-12.05-7.27-22.72-15.21-32.64-25.26-10.92-11.07-21.43-22.05-29.27-35.53-4.11-7.07-9.17-12.74-17.66-14.91-3.92-1-9.51-2.59-13.77-2.61l-42.12-.28c-2.31-.02-6.16-.92-8.49-1.46-15.73-3.6-29.23-10.73-42.34-19.69l-17.87-12.21c-8.48-5.8-17.66-10.72-27.72-13.34Z"/>
        <path class="cls-1" d="M798.45,505.96c-25.46,7.76-43.38,10.42-69.23,8.46-15.65-1.19-29.76-6.39-44.59-10.21l-20-5.15c-1.31-.34-3.87-.43-5.51-.67-4.14-.6-8.15-.55-12.35.18-12,2.08-22.5,3.94-32.14,11.84l-16.08,13.17c-11.44,9.37-24.57,19.35-39.61,9.11-6.18-4.2-10.92-9.46-15.33-15.42-9.17-12.39-18.84-23.46-29.53-34.56-12.05-12.5-24.9-23.08-39.28-32.9-18.6-12.7-42.92-27.16-64.47-33.5-11.35-3.34-22.49-6.25-34.37-7.41l-8.13-.79-10.94-1.07c-38.97-3.82-53.33-18.52-82.67-40.64-14.72-11.1-30.69-19.48-46.96-28.02l-21.68-11.38c-21.28-11.17-42.28-21.9-64.33-31.51l-7.75-3.38c-25.05-10.91-57.75-26.47-79.7-42.27-16.03-11.53-33.38-19.77-52.8-24.23.27-.48.96-1.9,1.47-1.75l2.59.77c22.09,6.58,31.4,11.71,50.43,24.71,21.82,14.91,52.06,30.24,76.53,40.5,8.09,3.39,15.68,6.52,23.53,10.51l68.28,34.65,23.39,12.63c8.21,4.43,23.66,14.19,31.1,19.91l22.64,17.39c16.75,12.87,36.77,18.3,57.73,20.28l8.23.77,10.77,1.18c16.98,1.86,38.97,8.05,54.34,15.77,39.43,19.8,73.18,44.36,100.99,78.71l17.53,21.66c3.6,4.45,8.9,8.87,14.23,10.6,9.95,3.24,19.56-.6,27.23-6.89,8.96-7.35,17.44-14.38,26.82-21.08,6.08-4.34,13.02-6.65,20.3-7.93,11.35-1.99,12.8-2.75,23.68-1.02,10.02,1.59,19.09,4.7,28.75,7.52,24.82,7.24,42.04,9.99,68.04,7.89,12.84-1.04,24.76-4.3,37.21-7.79,1.88-1.5,2.35-.68,1.66,1.35Z"/>
        <path class="cls-1" d="M723.81,381.17c28.53,3.84,51.26,28.65,69.69,49.02,2.32,2.57,4.21,5.35,5.31,8.55-15.88-18.47-30.39-35.07-51.82-48.22-8.88-5.45-18.56-7.37-28.89-8.05-1.28-.08-3.75-.52-4.95-.38l-7.3.89c-46.67,5.69-53.77,40.93-100.25,58.34-3.73,1.4-7.61,2.04-11.59,2.84-36.53,7.28-48.75-28.64-56.18-56.16l-3.56-13.2c-4.99-18.49-13.5-44.11-10.91-63.38,2.15-16.02,20.02-24.39,33.79-29.05,22.97-7.78,30.17-8.21,54.71-7.3,20.88.78,55.67,16.46,76.43,18.38l7.6.7c6.52.6,12.53.65,19.03.06l12.14-1.1c11.02-1,26.5-7.51,36.04-12.86,12.74-7.15,23.64-15.65,34.8-25.24.36-.08-.21,2.02-.67,2.42-12.16,10.43-26.59,20.94-41.23,28.24-17.11,8.53-40.68,12.53-59.08,10.53l-10.14-1.1c-10.04-1.09-19.44-4.03-29.04-6.96l-11.65-3.55c-9.55-2.91-19.13-5.77-29.09-6.88l-11-1.23c-4.21-.47-8.36-.72-12.52-.23-20.69,2.45-50.09,8.27-64.54,24.77-5.07,5.78-4.4,22.92-3.12,30.89,2.09,13.02,5.07,25.44,8.68,38.06l4.5,15.7,4.25,14.86c4.84,16.93,14.95,39.67,34.79,42.01,21.8,2.57,43.25-7.32,59.42-21.04l23.85-20.24c17.13-14.54,39.69-23.13,62.52-20.06Z"/>
        <path class="cls-1" d="M798.31,1.07c-.64,3.35-1.66,7.2-3.35,11.05l-23.32,53.39c-2.51,5.75-4.99,11.12-7.76,16.66-6.98,13.97-15.69,32.49-30.66,38.7-10.21,4.24-20.89,1.47-27.16-7.22l-13.81-19.15c-9.48-13.15-23.32-22.12-39.6-24.33-13.69-1.86-37.85,4.09-42.4,17.74-1.54,4.62-1.79,9.85-.92,14.29l3.64,18.66c3.36,17.21-3.81,30.12-20.66,34.36-7.9,1.99-15.56,3.48-23.7,4.25l-11.69,1.11-12.14.96-17.87.6c-9.63.33-16.33,1.61-28-1.45-5.36-1.4-10.79-3.35-14.93-6.83-9.33-7.85-1.13-21.54,5.89-28.1s14.18-11.24,22.47-15.23l34.45-16.58c7.75-3.73,14.92-8.37,20.69-14.51,6.81-7.26,4.75-22.86,2.98-32l-2.29-11.77c-1.13-5.8-2.42-28.83-.02-34.78.25.15,1.15.69,1.41.88-.78-.57-.94,24.23-.32,27.93l4.47,26.24c1.11,6.53.53,15.55-3.29,21.65-5.2,8.28-19.34,15.96-28.27,20.2l-24.59,11.69c-13.57,6.45-31.08,16.31-35.72,31.36-1.76,5.69.49,10.75,5.39,13.82,5.46,3.43,11.96,4.7,18.56,5.48,13.07,1.53,13.08.48,24.23.02l15.78-.64,12.14-.94,10.75-1.08c10.63-1.07,21.14-2.83,30.82-6.93,9.16-3.88,14.02-13.1,12.4-22.85l-4.8-28.96c-1.09-6.55,2.14-14.44,6.86-18.78,7.31-6.72,16.69-10.08,26.3-11.73,11.28-1.93,21.86,1.17,31.79,6.64s17.65,13.32,24.14,22.48l9.62,13.58c3.1,4.38,7.71,9.04,13.28,9.86,6.59.96,13.79-.79,19.24-4.46,11.22-7.54,20.26-26,25.82-38.35l15.51-34.47,7.13-16.68c3.64-8.52,7.01-16.39,11.51-25.78Z"/>
        <path class="cls-1" d="M733.28,187.41c23-17.3,47.84-53.03,63.73-77.87.71-1.71.95-1.11,1.22.58-15.94,24.5-32.76,49.24-53.56,69.45-13.61,13.22-33.1,23.68-52.05,24.93-9.89.66-25.77.54-35.77-.66l-39.08-4.7-10.87-1.08c-13.74-1.37-43.26-1.76-56.91-.92l-11.08.68c-4.13.26-7.97.39-11.99.74l-11.12.97-10.9,1.1-39.13,4.89c-16.17,2.02-36.41,3.71-49.98-5.54-8.43-5.74-11.12-17.76-9.33-27.41,5.34-28.69,37.15-57.39,59.27-74.88l31.8-25.15c9.26-7.32,17.58-15.79,22.83-26.28,3.18-6.34,6.04-12.66,7.71-19.36l6.66-26.74c1.57,1.97.8,4.39.29,6.7-2.44,11.04-5.31,21.35-9.45,31.92-8.13,20.72-21.5,30.73-38.68,44.01-24.86,19.22-51.63,39.82-69.03,66.08-6.19,9.34-9.91,19.71-10.02,30.96-.1,9.8,4.76,18.88,14.24,21.93,3.47,1.12,8.22,2.65,11.79,2.84,13.07.71,20.29.44,32.77-1.12l38.25-4.78,12.02-1.13,12.01-.99,10.99-.75,10.06-.71c12.25-.87,43.4-.34,55.92.95l9.91,1.02,9.02,1.01,8.04.94,13.07,1.6,8.08.95c11.58,1.36,27.15,1.85,38.58.82,14.84-1.33,28.91-6.15,40.68-15Z"/>
        <path class="cls-1" d="M798.75,81.7c-.56,3.92-2.51,7.15-4.54,10.54-13.78,23.03-25.59,42.19-43.51,62.49-14.28,16.18-31.57,28.11-53.52,29.53l-9.3.6-10.12.66-27.54.38-5,.9-109.16.15c-3.57,0-7.66.81-11.12,1.12l-11.07.99-10.99,1.01-9.89,1-12.09,1.06c-10.43.91-16.48,1.41-26.91-.39-9.77-1.68-22.39-5.31-25.98-15.54-2.36-6.75-1.05-13.86,2.01-20.29,4.82-10.12,10.89-19.25,18.37-27.62,9.75-10.9,20.18-20.29,31.8-29.19l33.9-25.98c21.7-16.63,26.61-47.41,30.48-73.13,1.43,2.18,1.12,3.28.87,5.27-2.03,15.93-4.77,31.67-12.35,45.88-4.1,7.69-8.38,15.27-15.21,20.55l-26.01,20.11c-23.1,17.86-56.53,44.19-62.95,73.82-1.81,8.32,1.64,15.97,8.88,19.62,4.38,2.21,9.4,3.96,14.23,4.47l7.99.85c5.76.61,12,.46,17.75-.02l8.14-.69,8.08-.75,10.01-.99,10.87-1.02,12.07-1.01c3.47-.29,7.51-1.13,11.12-1.14l115.67-.15,4.3-.86,19.69-.43,11.17-.66,10.12-.66c25.76-1.68,44.36-19.58,59.5-38.87,15.36-19.57,27.81-40.25,40.22-61.63Z"/>
        <path class="cls-1" d="M549.05,547.2l-9.51-12.96c-31.96-43.58-57.66-73.73-106.57-99.44-9.66-5.07-19.06-9.65-29.54-12.66-24.83-7.11-62.04-7.69-79.15-13.76-13.08-4.64-24.51-12.26-35.64-20.32l-20.97-15.18c-6.7-4.85-13.17-9.53-20.59-13.5-18.41-9.85-36.92-18.45-56.22-26.53l-21.9-9.17c-17.69-7.4-34.45-15.48-51.11-24.91l-29.43-16.66-25.47-16.45c-16.94-10.94-39.25-24.88-58.14-30.82-1.77-.55-3.38-.46-3.81-2.32,13.11,3.55,25.13,8.65,36.56,15.84l41.73,26.22c26.33,16.55,60.23,35.49,88.9,47.18l18.34,7.47,8.36,3.6,17.18,7.78c17.7,8.02,35.12,15.75,50.91,27.14l30.83,22.25c15.98,11.53,28.04,17.48,47.64,20.28l17.44,2.49,13.46,1.54c20.75,2.37,39.96,7.84,58.57,17.64,37.43,19.71,65.2,43.12,91.02,76.71l15.67,20.39.84,1.14.84,1.15,3.81,5.24.8,1.14,4.41,6.57.83,1.23.88,1.32-.96.33Z"/>
        <path class="cls-1" d="M553.82,385.73c3.56,11.47,13.49,31.72,25.73,34.35,16.84,3.63,34.52-3.53,48.32-13.13,27.98-19.47,39.76-36.47,74.47-50.58,21.11-8.58,49.28-.51,64.72,14.38,12.79,12.34,23.2,26.59,31.97,41.93l-26.73-35.1c-7.09-7.25-14.48-13.51-24.05-17.34-9.04-3.62-24.69-6.73-34.23-5.17-11.15,1.82-20.99,6.45-30.58,12.09-23.33,13.7-36.35,28.77-57.45,42.65-11.78,7.75-29.71,15.24-43.87,12.72-15.55-2.76-24.29-22.15-29.4-35.29-4.55-11.69-7.07-23.84-9.04-36.34-3.37-21.36,4.47-41.96,25.61-49.47,5.03-1.78,9.84-3.55,15.1-5.08,9.6-2.81,24.42-3.13,34.24-2.13,10.31,1.05,19.95,3.95,29.37,7.77l17.78,7.22c28.22,11.45,37.13,16.66,69.13,18.91l14.05.99c13.2.93,19.34,2.54,31.04,8.58l17.24,8.9,1.64.85c.37.19-.1,1.68-.5,1.53s-1.38-.54-1.91-.83l-14.23-7.8c-8.52-4.67-17.38-7.94-27.22-8.76l-12.12-1-12.09-.85c-24.1-1.7-37.37-7.56-59.44-16.63-25.38-10.43-50.49-21.94-78.72-16.54-18.32,3.51-39.59,8.89-45.38,28.64-2.77,9.47-3.14,18.9-1.41,28.63,1.96,10.99,4.66,21.3,7.95,31.91Z"/>
        <path class="cls-1" d="M529.11,540.68c-18.65-28.55-36.04-49.99-62.59-71.56-10.13-8.23-19.65-16.37-30.48-23.63-12.06-8.08-33.76-15.66-48-17.86l-27.72-4.29c-19.14-2.96-37.48-3.99-54.83-13.28-11.02-5.9-20.32-13.07-30.29-20.65-29.84-22.66-62.59-38.68-98.68-49.17-25.52-7.42-54.92-25-76.97-40.27-30.6-21.18-57.54-41.21-92.02-55.85-2.43-1.03-5.96-.1-6.58-3.87,31.3,10.75,58.59,30.84,85.58,49.03l30.5,20.57c12.84,8.66,37.02,21.53,51.76,25.98l10,3.02c28.7,8.67,65.39,25.96,89.4,43.73l22.51,16.66c21.37,15.81,35.25,17.32,60.82,20.94,33.61,4.76,63.43,7.13,91.62,28.58,15.4,11.72,30.05,23.42,44.15,36.66,14.9,14,36.91,43.92,47.73,61.99-3.26-1.12-4.25-4.19-5.91-6.74Z"/>
        <path class="cls-1" d="M796.61,50.91c.77-1.98.85-3.79,2.64-3.89-10.49,32.19-48.38,106.46-86.47,108.65-2.15.12-6.2-.68-8.46-1.27-20.35-5.29-28.96-23.23-41.45-19.63-7.74,2.24-10.53,17.31-21.7,27.35-7.57,6.81-21.69,10.32-31.33,10.49l-19.79.35-4.31.8-19.64.15-4.55.81-16.5.43-9.16.65-9.07.79-9.87,1-12.17.94c-14.93,1.16-31.34,1.01-44.21-6.51-7.97-4.66-10.47-14.2-7.08-22.64,2.85-7.08,6.97-13.37,11.46-19.61,14.31-19.89,29.58-27.7,50.19-40.68l12.26-7.72c7.21-4.54,13.09-10.97,16.22-19.17,5-13.13,7.21-26.76,8.86-40.75l1.25-10.61,1.01-8.58c.66-1.21,2.29-2.21,1.85-.25l-.87,7.75-.91,8.12c-2.05,18.22-4.51,37.97-14.58,53.31-3.38,5.15-8.48,9.07-13.52,12.3l-15.31,9.8c-10.22,6.54-20.59,12.24-29.84,20.25-11.54,10-28.58,30.78-27.64,47.01.63,10.99,18.42,15.32,27.27,15.93s17.72.96,26.67.07l9.06-.91,10.92-1.1,9.06-.73,10.16-.65,18.65-.45,4.44-.75,19.63-.45,12.13-.67c3.92-.22,7.72,0,11.45-.51,19.78-2.74,28.38-5.88,38.32-24.84,2.35-4.48,5.09-8.45,9.34-11.45,2.18-1.54,7.89-1.91,10.19-.51,5.55,3.39,10.52,6.79,15.69,10.48,18.32,13.08,34.98,13.4,52.3-1.95,25.65-22.73,44.89-58.9,57.42-91.15Z"/>
        <path class="cls-1" d="M432.59,454.27c37.26,25.17,57.15,46.32,82.8,82.94,2.37,3.38,4.6,6.89,5.71,10.79-9.7-13.49-17.91-25.99-28.11-38.17-11.39-13.6-23.38-25.81-37.32-36.82-18.34-14.47-37.27-28.62-59.91-35.08-7.22-2.06-14.18-3.72-21.59-4.46l-9.27-.92-16.08-.88c-19.95-1.09-38.69-8.28-56.06-17.9-38.25-21.16-42.81-36.71-88.17-50.71l-39.79-12.27c-20.34-6.27-49.22-26.26-66.54-39.41l-37.51-28.48c-15.84-12.03-39.75-26.7-59.46-33.58-1.26-.77.77-1.41,1.79-1.09,21.74,8.37,44.68,22.93,62.85,36.7l42.65,32.3c12.54,9.49,25.42,17.45,39.25,24.82,6.26,3.34,12.4,5.78,19.15,7.78l23.08,6.83c14.93,4.42,41.6,13.67,53.81,22.37l28,19.93c19.89,14.16,48.64,29.33,73.29,30.55l12.64.63,11.16.93,8.89.99c18.11,2.02,39.63,12,54.75,22.21Z"/>
        <path class="cls-1" d="M334.86,439.65c-26.83-2.65-47.3-13.59-69.01-28.88-17.67-12.44-44.42-28.97-65.94-31.78-4.05-.53-18.83-1.72-18.81,4.93,0,1.95,2.79,4.77,4.39,6.32,20.53,19.97,42.89,41.06,56.57,66.34l15.43,28.52c5.03,9.29,11.24,16.96,18.23,24.89,10.45,11.84,19.35,24.61,26.87,38.16-5.27-5.51-8.3-11.66-12.52-17.41-13.53-20.35-23.26-25.21-35.29-47.66l-10.83-20.2c-17.3-32.28-31.23-43.01-55.92-68.1l-6.93-7.04c-.83-.85-1.64-3.23-1.6-4.27.05-1.21,1.6-3.57,2.74-4.17,7.83-4.14,19.77-2.88,28.16.05,42.67,14.92,60.12,37.57,89.43,49.39,11.21,4.52,22.22,7.68,34.18,8.86l10,.99,9,.98,8.17.93c14.36,1.63,27.9,4.84,41.39,9.91,5.97,2.24,11.64,4.52,17.13,7.82,14.42,8.68,27.48,18.44,39.94,29.96,19.12,17.67,36.85,36.66,49.64,59.38l-21.58-28.35c-14.35-18.84-51.9-52.33-73.81-62.29l-9.2-4.18c-12.46-5.67-35.73-9.67-49.76-11.08l-10.93-1.1-9.13-.9Z"/>
        <path class="cls-1" d="M249.74,164.89c-7.38,10.25-22.46,16.35-34.79,17.8-23.14,2.72-51.59,3.01-69.46-13.4-11.58-10.64-14.93-38.94-13.09-53.83,1.96-15.85,7.83-29.79,18.76-41.37,5.85-6.2,11.94-11.98,18.9-17.05l27.74-20.22c11.02-8.03,27.54-16.93,40.87-10.76,4.51,2.08,8.95,4.39,12.59,7.47,13.21,11.17,23.76,24.29,33.12,38.77,3.76,5.82,6.01,12.04,8.32,18.62,2.87,8.21,1.71,19.94-4.67,27.19-10.05,11.42-20.51,22.11-29.43,34.49l-8.85,12.3ZM207.81,181.78c21.08-2.42,32.91-5.44,45.38-23.87,9.62-14.21,21.2-26.31,32.56-39.2,2.56-2.91,5.78-7.14,5.99-10.94.28-5,.75-10.68-.25-15.23-4.25-19.32-25.38-44.18-40.22-57.11-14.91-12.98-32.1-11.88-47.54-1l-16.54,11.66c-8.65,6.1-16.78,12.24-24.77,19.23-18.85,16.52-24.4,26.43-28.09,50.94-1.65,10.97.6,21.67,2.55,32.5,1.83,10.13,6.49,18.4,15.39,24.03,17.13,10.83,35.9,9.04,55.55,8.99Z"/>
        <path class="cls-1" d="M129.5,395.09c-25.74,2.79-47.55,21.92-62.74,41.66-12.23,15.9-14.68,37.16-2.86,53.94,3.88,5.52,8.74,9.8,13.6,14.61,12.3,12.18,22.13,26.46,28.91,42.33-3.91-4.74-6.2-9.89-9.22-14.92-7.05-11.61-15.26-21.75-25.28-30.9-6.16-5.62-10.81-12.01-14.29-19.6-6.71-14.65-3-29.99,5.83-43.03,8.79-12.98,19.8-24.07,32.81-32.81,10.49-7.04,21.62-11.08,34.09-13.11,34.55-5.61,81.82,38.03,99.48,65.59l24.57,38.36c4.19,6.54,8.5,12.66,13.19,18.85,8.12,10.72,17,20.23,24.34,31.46-13.32-14.18-24.61-29.2-35.68-44.91-12.09-17.16-20.7-34.62-34.05-52.04-13.42-17.5-29.8-31.98-48.33-43.75-13.99-8.88-27.83-13.54-44.36-11.74Z"/>
        <path class="cls-1" d="M67.05,513.29c13.06,8.75,22.5,20.55,28.73,34.61-2.42-.2-2.93-2.62-4.04-4.79-5.57-10.98-13.84-20.03-23.83-27.42-11.77-8.71-23.77-16.47-36.67-23.39-3.14-1.68-6.97-2.99-8.03-5.36-1.64-3.62-1.92-8.49-.02-11.76,12.7-21.83,43.14-58.19,63.03-74.02,17.01-13.55,33.78-18.86,48.3-30.59,3.42-2.76,3.85-7.08,1.22-10.59-4.2-5.6-9.02-10.82-14.36-15.53l-20.22-17.85-35.16-29.99c-19.71-16.81-41.34-30.41-65.43-39.28,1.52-2.86,26.74,10.53,28.58,11.58,17.17,9.84,32.31,21.71,47.29,34.47l16.24,13.82,23.29,20.58c7.53,6.66,14.72,13.05,20.76,21.04,2.46,3.25,3.31,8.2.2,11.19-3.53,3.4-7.58,6.39-11.87,8.88l-27.86,16.12c-19.62,11.35-47.44,45.11-61.36,63.8-6.86,9.2-8.88,10.66-12.04,21.04-2.95,9.69,9.11,10.55,19.59,17.58l23.68,15.88Z"/>
        <path class="cls-1" d="M657.13,477.74c15.49,3.83,25.31,9.67,40.16,14.81,32.87,11.37,75.18,19.48,101.35-10.59-.45,1.86-1.86,4.28-3.64,5.87-13.65,12.18-33.02,18.73-50.95,16.81l-8.22-.88c-13.8-1.48-27.09-5.04-39.87-10.04l-19.44-7.59c-8.47-3.31-16.96-5.77-25.69-8.32-6.35-1.85-20.58-5.5-22.13-11.3-.51-1.92.26-5.4,1.63-7.4,13.97-20.45,34.09-43.19,56.21-54.66,8.63-4.47,17.83-6.15,27.35-6.17,22.51-.05,43.65,13.76,58.38,30.12,10.54,11.71,19.84,24.07,26.58,38.52l-12.9-19.1c-16.9-23.72-35.65-43.16-65.96-47.31-4.2-.58-8.2-.76-12.36-.2-18.85,2.54-28.82,8.83-42.95,21.35-12.54,11.11-23.21,23.61-32.64,37.48-.98,1.45-2.02,3.82-2.1,5.13-.43,7.61,20.74,11.86,27.16,13.45Z"/>
        <path class="cls-1" d="M374.34,457.04l-61.31-8.35c-14.96-2.04-31.69-9.73-49.19-13.87-4.29-1.01-8.85,2.31-8.55,6.93.66,9.9,4.81,21.07,9.25,30.25l6.55,13.54c9.04,18.7,33.37,41.63,41.27,62.31-9.96-15.12-18.8-28.88-29.95-42.41-8.06-9.78-14.47-20.94-19.06-32.62l-7.11-18.08c-2.38-6.05-4.19-14.65-.14-19.1,1.33-1.46,5.45-3.02,7.69-2.6,22.15,4.13,28.42,11.33,59.68,15.31l12.46,1.58,13.03,1.77,23.94,3.18c10.53,1.4,20.07,4.82,29.49,9.69,13.64,7.06,26.28,14.83,38.21,24.69,17.77,14.7,40.67,36.99,53.51,56.49.33,1.21.27,1.72-.72,1.17-8.76-12.32-17.65-23.14-28.22-33.33l-7.75-7.47c-18.08-17.43-37.91-32.69-61.07-42.58-7.1-3.03-13.98-5.4-22-6.49Z"/>
        <path class="cls-1" d="M206.41,445.31c-21.27-19.78-51.85-43.74-82.44-38.25-20.85,3.74-37.63,15.7-48.24,33.79-3.96,6.75-5.74,18.73-4.63,26.82,1.9,13.87,7.76,25.81,17.04,35.96,11.74,12.84,21.81,27.1,26.31,43.84-5.88-11.61-10.46-23.3-18.89-33.11l-12.08-14.05c-3.88-4.51-6.93-10.04-9.5-15.54-5.98-12.8-7.55-28.89-.8-41.93,7.42-14.33,18.91-24.95,33.39-32.19,5.85-2.93,12.61-5.19,19.31-5.64,5.42-.36,11.64-.71,16.63.28,11.76,2.32,21.97,6.99,31.9,13.3,14.47,9.2,27.56,19.75,39.4,32.2,16.55,17.4,29.04,45.75,44.34,64.7l24.8,30.71c1.58.85.28.94-.86.82l-10.76-12.63c-12.82-15.06-24.02-30.69-34.05-47.79-8.32-14.17-18.93-30.18-30.88-41.29Z"/>
        <path class="cls-1" d="M135.06,416.21c-16.31-2.66-37,8.99-46.3,22.61-11.76,17.23-3.21,43.77,8.27,59.85s20.33,31.68,26.6,49.37c-2.13,2.13-6.45-12-7.42-14.23-5.51-12.75-13.06-23.89-20.98-35.24s-14.71-27.5-14.08-40.43c1.19-24.33,22.98-40,45.54-43.63,6.43-1.03,18.38,1.11,24.52,3.07,20.59,6.58,40.19,19.44,54.56,35.31,22.87,25.26,27.58,41.37,46.21,64.78l23.46,29.48c.18.29-1.84-.33-2.6-1.25-12.09-14.66-26.49-32-36.92-48.68-8.37-13.39-15.84-25.6-25.96-37.39-7.06-8.23-14.31-15.55-23.12-22.07s-18.71-12.78-29.54-16.64c-6.97-2.48-14.44-3.64-22.26-4.92Z"/>
        <path class="cls-1" d="M173.31,438.26c-21.55-15.16-57.89-20.4-73.93,5.23-6.91,11.05-3.29,30.5,1.87,41.68,2,4.35,4.03,8.61,6.42,12.73,7.42,12.86,13.84,25.63,19.62,39.34,1.53,3.63,2.99,6.62,3.69,10.81-2.45-2.03-2.82-4.45-3.9-7.31-6.01-15.98-14-30.51-22.35-45.38-12.19-21.7-18.77-47.38,4.45-64.09,7.72-5.56,16.16-7.9,25.79-7.55,4.13.15,8.71.19,12.73,1.33,21.67,6.19,38.72,19.96,55.38,34.62,8.54,9.94,15.67,20.11,22.55,31.32,11.52,21.15,26.96,38.05,42.38,56.86-20.36-18.74-35.22-41.98-49.62-65.42-8.82-14.36-19.63-26.27-33.3-35.89l-11.78-8.29Z"/>
        <path class="cls-1" d="M401.81,94.57c40.08-18.33,78.89-51.82,94-92.72.25-.67,2.4-1.03,2.25-.61-2.59,7.29-8.92,19.12-13.64,26.33-12.15,18.58-27.58,34.17-45.7,46.95-22.26,15.69-51.29,32.95-79.58,28.83-24.8-3.61-46.2-27.7-62.28-45.43-8.38-9.24-16-18.37-23.82-28.1s-15.07-18.17-24.34-25.76c-1.23-1.01-2.41-1.66-1.77-3.16,8.16,6.02,14.49,12.69,20.75,20.21l24.51,29.44,22.14,23.86c7.54,8.12,16.08,14.87,25.51,20.51,16.22,9.7,36.47,8.38,53.66,2.45,2.56-.88,5.9-1.71,8.32-2.82Z"/>
        <path class="cls-1" d="M176.01,449.18c-11.21-7.42-22.88-11.34-35.71-12.88-2.38-.29-5.25.07-7.57.11-15.91.33-26.36,12.61-25.04,28.6,1.13,13.76,6.08,26.13,12.31,38.47,7.45,14.75,13.86,29.42,19.63,44.8-4.64-4.36-5.19-10.36-7.55-15.54l-7.49-16.44-12.47-26.38c-5.95-12.58-9.8-31.67-.96-44.06,3.82-5.36,10.22-9.38,17.09-10.57,32.97-5.71,68.09,23.19,84.92,49.04l9.92,15.24c10.95,16.81,22.16,32.55,36.2,47.35,2.05.3,1.78.38-.64.63-13.35-12.4-23.67-27.1-33.76-42.51l-15.07-23.03c-8.68-13.26-20.24-23.85-33.81-32.83Z"/>
        <path class="cls-1" d="M426.34,69.35c30.1-19.65,44.59-35.71,59.36-68.78-1.09,7.39-4.63,13.64-8.4,19.96-14.86,24.92-30.25,37.79-54.7,52.88-18.73,11.56-37.86,18.84-60.04,15.86-8.35-1.12-15.85-3.87-23-8.31-29.21-18.13-58.78-51.76-78.7-80.19,5.29,3.47,8.04,9.19,11.94,14.11,14.85,18.72,35.45,41.44,54.35,55.76,11.31,8.57,22.54,16.35,36.8,17.02,26.13,1.23,40.82-4.23,62.4-18.32Z"/>
        <path class="cls-1" d="M1.23,462.96c18.08-12.07,35.84-24.07,50.71-40.01l13.08-14.02c3.98-4.26,8.56-7.96,12.88-11.92l22.06-20.16c2.66-2.43,5.19-6.26,6.39-9.64,4.76-13.44-5.27-24.79-13.81-34.02-22.98-24.87-57.59-55.18-90.06-67.44-2.49-.08-1.9-1.3.04-2.15,35.35,14.57,70.96,45.97,95.73,73.65,6.98,7.8,14.16,19.62,9.79,29.97-2.19,5.2-6.07,9.81-10.13,13.54l-9.96,9.15c-11.96,10.98-23.26,21.72-34.51,33.47-14.52,15.17-29.4,25.55-46.5,37.39-1.76,1.22-3.7,2.33-5.71,2.19Z"/>
        <path class="cls-1" d="M403.52,485.08c-14.15-7.54-36.85-13.3-52.84-14.93l-9.88-1.01-10.89-1.11-10.08-.89-19-.46c-3.12-.08-6.55.79-8.78,2.79-9.82,8.78,7.11,32.84,12.79,41.38,6.28,9.44,11.85,18.71,17.41,28.57.98,2.82,1.82,5.44,2.31,8.09-5.39-10.59-10.81-20.16-17.11-30.08l-15.19-23.91c-4.28-6.73-6.13-14.94-2.91-22.7,1.27-3.05,6.17-5.51,9.65-5.69,7.07-.37,13.89-.67,20.8.01l10,.99,9.02.95,10.01,1.05c29.86,3.13,52.5,11.41,76.74,29.18,19.44,14.25,36.05,30.55,51.17,49.61-.17.35-1.86-.07-2.34-.66-19.19-23.65-43.68-46.65-70.88-61.15Z"/>
        <path class="cls-1" d="M1,140.22c.03-.41.95-1.77,1.2-1.48s1.26,1.22,1.75,1.51c6.38,3.82,14.12,8.6,20.6,12.94,8.58,5.76,18.22,10.51,28.7,7.18,13.02-4.14,24.94-23.29,31.77-34.61l14.24-23.63,10.61-16.47c7.77-12.06,16.81-22.79,28.66-31.08l33.6-23.52L214.81.66c-5.21,4.99-10.8,8.92-16.64,13.36l-45.16,31.81c-15.85,11.17-26.52,19.16-38.07,35.12-9.35,12.92-17.3,26-25.34,39.8-6.39,10.97-12.75,21.26-21.22,30.66-12.33,13.68-26.67,15.11-42.05,4.61-7.87-5.38-17.46-11.48-25.35-15.8Z"/>
        <path class="cls-1" d="M774.74,481.71c-7.6,10.09-20.26,12.32-31.98,11.74-9.84-.48-18.85-2-28.05-5.67-16-6.37-38.52-15.89-44.49-33.16-5.08-14.69,16.26-42.25,46.68-40.99,6.31.26,11.93.67,17.73,3.61,17.8,9,32.44,23.44,41.58,41.12,4.11,7.93,3.78,16.36-1.48,23.34ZM736.29,491.11c14.94,2.04,34.93-.32,40.28-16.15,1.68-4.97.14-11.4-2.38-16.51-7.36-14.91-18.8-27.13-33.06-35.92-15.72-9.68-36.97-8.99-52.15.27-10.52,6.41-20.19,20-16.65,32.67,4.98,17.81,45.58,34.39,63.96,35.64Z"/>
        <path class="cls-1" d="M409.78,328.65c1.19,14.17-13.28,18.62-24.87,18.36-16.17-.35-33.45-7.81-45.3-18.97-14.26-13.43-27.73-31.36-25.6-52,6.2-16.33,21.02-23.87,37.85-24.41,21.41-.68,31.54,16.7,39.17,33.82,1.75,3.01,3.44,6.02,4.93,9.12l9.83,20.43c1.96,4.07,3.61,9.29,3.98,13.64ZM400.69,342.56c6.25-2.97,8.6-9.43,7.03-15.62-2.4-9.44-6.38-18.27-10.7-27.04l-4.6-9.31-3.37-6.79c-5.57-11.23-14.14-26.61-27.46-29.58-15.54-3.46-36.27,2.34-44.06,17.41-2.45,4.74-1.95,10.61-2.33,16.09,3.41,13.7,9.83,22.32,18.98,32.83,13.13,15.08,31.05,25,51.74,24.39,4.81-.14,10.3-.28,14.77-2.4Z"/>
        <path class="cls-1" d="M148,448.58c-7.16-.95-20.83-1.91-24.07,7.22-5.93,16.66,1.55,37.11,8.21,52.47,5.58,12.87,10.28,25.1,15.17,38.65l-1.9.33-12.47-34.2-8.3-18.83c-3.36-7.62-4.2-15.97-4.88-24.36-.32-3.89.71-8.05,1.66-11.51,5.2-18.94,33.23-11.89,46.06-5.71,13.82,6.66,31.75,22.53,40.12,35.48l20.77,32.13,21.84,27.39c-12.99-11.25-22.02-24.93-31.02-38.97-5.42-8.45-10.06-16.86-16.36-24.7-7.21-8.97-15.78-16.39-24.86-23.31-8.98-6.85-18.76-10.62-29.98-12.1Z"/>
        <path class="cls-1" d="M416.31,64.29c23.98-12.65,47.07-38.84,57.31-63.44.29,1.7-.06,3.74-.8,5.2-8.67,17.02-19.76,31.95-34.3,44.46-9.34,8.04-19.58,15.09-31.08,19.74-7.43,3.01-20.67,6.5-28.8,7.33-43.34,4.39-85.91-41.17-106.29-75.94,3.75,3.57,6.15,8.14,9.37,12.27l11.9,15.26c3.33,4.28,7.15,8.02,11,11.96,21.06,21.56,46.96,38.28,78.4,33.98,6.43-.88,12.94-1.69,18.73-4.19,4.99-2.16,9.82-4.14,14.55-6.63Z"/>
        <path class="cls-1" d="M767.22,3.19l-3.84,8.28-6.47,15.34-6.27,14.86-9.06,20.89c-2.01,4.63-5.8,9.56-10.6,11.06-11.85,3.7-18.24-10.46-32.23-18.64-20.54-12.02-34-14.12-57.23-14.31l-18.88-.16c-14.93-1.72-28.48-8.29-32.51-23.89-.92-3.57-2.87-14.43.46-15.98l.59,12.01c.77,15.75,14.32,24.33,29.68,25.46.86.06,3.26.69,4.2.69l31.74.09c26.24,4.56,39.37,9.91,58.59,27.63,4.14,3.82,8.63,7.55,14.76,5.76,5.08-1.48,8.14-6.31,10.2-10.98l3.73-8.44,9.57-22.37,12-27.95.74-1.72c.17-.39,1.83.21,1.66.59l-.81,1.78Z"/>
        <path class="cls-1" d="M7.04,443.26c-2.57.98-5.1,2.25-6.78.38,10.46-3.24,19.65-6.66,28.26-13.11,12.61-9.44,23.36-20.31,34.93-31.08,9.23-8.58,17.76-17.17,23.96-28.29,3.93-7.05,3.37-19.02-.26-25.43-5.93-10.46-13.76-19.38-22.37-27.73-20.4-19.79-39.02-32.78-63.41-45.27,7.65,1.78,13.96,5.47,20.28,9.52,18.3,11.74,35.09,24.92,49.95,40.81,7.91,8.46,15.11,16.83,19.41,27.71,2.03,5.13,1.01,12.41-.98,17.47-3.09,7.88-8,14.19-13.68,20.16-7.41,7.79-14.81,14.91-22.71,22.18-16.08,14.81-25.05,24.44-46.61,32.69Z"/>
        <path class="cls-1" d="M.71,116.44c1.66-.45,3.88-.51,5.74-.16,18.95,3.54,37.55,7.08,55.31-3.46,10.34-6.14,18.71-14.59,26.62-23.54,9.04-10.22,17.72-19.81,28.07-28.76,15.19-13.14,30.92-24.31,47.58-35.46,9.49-6.35,17.84-13.34,26.02-21.15,1.41-1.34,2.66-2.31,4.44-2.38-10.34,10.86-21.74,19.39-34.07,27.67-13.09,8.8-25.31,17.65-37.48,27.63-12.65,10.37-23.23,21.82-34.06,34-16.75,18.85-34.82,33.93-61.4,30.62-9.1-1.13-17.64-1.82-26.77-5Z"/>
        <path class="cls-1" d="M436.65,32.13c9.15-9.75,14.78-20.38,22.74-31.46-4.96,11.66-12.71,22.36-21.53,32.14-23.17,25.7-56.58,40.62-90.29,27.31-10.94-4.32-20.75-9.78-29.82-17.31-14.22-11.8-26.74-25.38-35.71-41.55,3.9,3.68,6.38,7.86,9.43,11.97,13.39,18.04,33.23,36.83,54.64,44.62,14.55,5.29,29.91,6.98,44.91,3.03,19.43-5.11,31.61-13.82,45.63-28.76Z"/>
        <path class="cls-1" d="M641.55,360.78c-9.42,19.08-41.31,48.74-61.76,28.03-7.26-7.36-10.41-17.45-11.26-27.74-2.73-9.42,3.57-21.94,10.46-28.06,9.49-8.43,21.94-11.62,34.32-9.69,13.06,2.04,27.14,6.67,31.15,21.01,1.5,5.38-.4,11.33-2.92,16.44ZM637.63,365.33c1.95-2.77,3.24-6.36,4.26-9.49,3.31-10.12-.43-20.37-10.01-25.11-10.1-5.01-21.21-6.97-32.38-5.41-20.1,2.8-32.52,18.3-28.82,38.55,2.71,14.84,8.58,31.46,27.35,30.05,16.28-1.22,30.73-15.95,39.62-28.58Z"/>
        <path class="cls-1" d="M69.36,379.34c-18.22,25.48-36.29,41.52-65.83,52.86-1.7-.27-2.19-.3-.87-.96,29.88-11.89,49.12-28.76,66.98-54.77,11.02-16.06,3.85-32.64-6.7-46.61-16.24-21.51-37.49-37.46-62.26-49.3,1.59-1.16,3.61.03,5.63,1.07,24.38,12.56,46.9,30.52,62.01,53.59,10.65,16.26,12.66,27.86,1.04,44.11Z"/>
        <path class="cls-1" d="M144.3,463.85c-7.01,2.45-7.88,14.71-6.87,21.23s2.24,12.66,4.43,18.73l5.07,14.05c3.68,10.2,6.82,20.04,9.83,30.19-3.31-.83-2.74-3.34-3.48-5.5l-13.56-39.48c-2.05-5.96-3.33-11.78-4.29-18.01-1.13-7.38.61-20.21,9.39-23.35,12.51-4.47,32.49,7.48,41.27,15.89,8.14,7.8,15.01,16.34,21.34,25.59l10.97,16.03c6.82,9.96,13.85,19.15,22.15,28.48-.45.03-3.38-1.24-4.15-2.18-17.93-21.74-29.35-43.27-46.73-62.41-9.79-10.78-30.29-24.54-45.36-19.28Z"/>
        <path class="cls-1" d="M770.03,522.43c-3.08.58-6.33,1.02-9.06,1.27l-9.19.84c-19.87,1.81-40.47-2.31-59.95-6.68-27.01-6.06-45.77-8.88-69.7,6.16-9.72,6.11-16.34,14.74-24.76,23.64,5.2-9.91,13.92-17.35,23.15-24.08,11.67-8.52,29.46-14.3,43.8-12.33,8.79,1.21,17.15,2.49,25.84,4.35,23.12,4.95,40.38,9.04,64.46,6.86,14.63-1.33,28.07-3.94,42.48-7.68l1.8,1.29c-5.03,1.5-8.16,2.48-12.38,3.27l-16.48,3.09Z"/>
        <path class="cls-1" d="M37.32,101.53l-30.57.41c-1.89.03-4.31-.88-6.03-1.85,16.74-.9,11.2,1.1,29.26.23,14.84-.71,28.27-4.16,40.71-12.62,11.87-8.06,22.28-17.38,32.86-27.17,7.84-7.26,15.83-13.39,24.43-19.61l31.9-23.07c7.41-5.36,13.6-11,20.84-17.06-1.96,3.98-5.29,6.55-8.46,9.5l-24.63,18.21-30.07,21.97c-7.5,5.48-13.85,12.03-20.8,18.23-13.95,12.44-28.45,24.71-46.48,30.44-3.65,1.16-8.8,2.34-12.96,2.4Z"/>
        <path class="cls-1" d="M10.43,89.56l-8.38-.79c-.44-.04-1.75-1.37-1.33-1.48,4.94-1.27,4.94.26,8.21.39,11.38.46,28.09-.36,38.57-3.4,17.08-4.95,32.03-13.82,45.63-25.19,15.76-13.18,31.4-24.97,48.16-36.75,9.62-6.77,18.04-13.96,26.71-21.18-4.86,7.07-11.38,11.09-17.56,16.27-15.88,11.51-31.68,22.42-46.9,34.86-7.78,6.36-14.78,12.38-23.1,17.99-14.38,9.67-30.03,16.56-47.52,18.45l-8.16.88c-4.29.46-9.33.44-14.31-.03Z"/>
        <path class="cls-1" d="M778.42,534.63l-9.66.93c-5.69.55-12,.47-17.71,0l-11.19-.92c-2.86-.24-5.95-.6-8.84-1.01l-47.06-6.76c-16.23-2.33-32.02-1.17-46.85,6.09-6.96,3.4-12.62,9.1-18.05,14.37l-1.38-.1c16.58-19.22,35.48-24.9,59.25-22.71,4.32.4,8.7.56,13.01,1.2l40.09,5.96c2.85.42,5.98.77,8.83,1.01l10.2.86c6.76.57,13.95.65,20.76.03l8.14-.74c6.95-.63,13.01-2.25,20.41-4.04l.14,2.02-11.93,2.73c-2.12.49-5.37.82-8.15,1.09Z"/>
        <path class="cls-1" d="M395.26,45.43c18.85-7.07,34.93-25.5,43.81-44.24-.24-.36.63.93,1.08,1.61-5.49,9.6-10.72,18.28-18.25,26.02-12.39,12.74-28,21.34-45.94,22.95-11.24,1.01-26.49-2.18-36.32-6.91-19.6-9.43-37.81-26.46-47.03-43.93,9.04,10.71,15.84,20.45,25.62,28.68,21.94,18.47,49.57,26.11,77.03,15.81Z"/>
        <path class="cls-1" d="M36.53,399.96c5.5-5.62,10.08-11.04,14.5-17.17,7.98-11.06,10.19-16.93,8.67-30.88-.82-7.5-4.45-13.98-8.92-19.92-12.02-15.97-26.91-29.15-44.47-38.74-2.11-1.15-4.82-1-5.46-4.31,20.17,9.53,37.69,24.17,51.26,42.43,9.62,12.95,13.71,27.9,5.8,42.72-9.26,17.33-22.82,31.31-40.09,40.46-6.09,2.35-11.12,6.27-17.62,6.52,13.55-5.92,25.36-11.42,36.34-21.11Z"/>
        <path class="cls-1" d="M19.65,79.58c-.7.07-20.91,1.44-18.84-1.54l21.15-.41c6.91-.13,25.23-3.6,32.56-6.17,13.79-4.84,26.2-12.22,37.65-21.15l18.64-14.52c15.79-10.8,29.8-22.78,45.18-34.65-13.99,14.6-30.72,25.52-46.88,37.82-9.47,7.21-17.97,14.68-28.01,20.99-16.68,10.47-32.54,16.83-52.18,18.74l-9.28.91Z"/>
        <path class="cls-1" d="M391.29,508.39c-16.82-8.16-25.26-10.45-44.18-9.33-4.67.28-10.29,2.65-11.74,7.49-3.36,11.2,7.94,29.43,6.88,42.05-2.64-6.52-3.55-12.56-5.2-18.91-3.7-9.48-8.79-25.57,3.97-30.53,32.57-12.66,83.83,25.48,106.12,48.22-8.1-5.01-14.51-11.28-21.7-17.25-10.59-8.79-21.73-15.73-34.16-21.75Z"/>
        <path class="cls-1" d="M165.84,486.04c-9.2,1.5-9.6,18.72-8.44,24.24l8.07,38.36c-7.05-14.6-7.48-29.73-11.01-44.73,1.05-4.93,1.97-9.42,3.88-13.74,2.36-5.31,8.9-7.63,14.21-4.78,7.17,3.85,14.1,8.88,19.31,15.5,12.16,15.47,23.96,30.61,35.31,46.74-13.61-11.18-42.38-64.69-61.34-61.6Z"/>
        <path class="cls-1" d="M743.47,546.6l-9.5-1.01-7.02-.88-13.05-1.86-13.03-1.81c-3.21-.45-6.69-.82-9.93-.97l-13.09-.64c-3.35-.16-7.25.29-11.06.45-7.8.32-15.63,2.82-22.42,6.39-1.61.85-2.66,1.28-4.61,1.44,11.9-12.25,44.37-10.75,60.04-8.64l43.08,5.8c16.58,2.23,37.48,1.22,54.3-3.16.38.11,1.21.94,1.58,1.63-15.22,3.44-30.94,5.69-45.73,4.23l-9.54-.94Z"/>
        <path class="cls-1" d="M601.51,475.43c7.88,3.72-12.69,27.63-24.73,31.02-7.18,2.02-14.36-2.28-18.94-7.55-6.54-7.51-10.31-16.34-13.14-26.11-.51-1.75,1.58-5.45,3.45-5.35,7.95.44,14.93,1.32,22.73,2.31l13.3,1.69c5.99.76,11.68,1.32,17.33,3.99ZM600.9,482.52c.7-1.08,1.01-3.61.59-4.64s-2.9-2.56-4.04-2.71l-49.33-6.24c-5.08-.64,3.32,27.16,18.14,34.76,13.47,6.91,28.09-11.02,34.65-21.17Z"/>
        <path class="cls-1" d="M3.64,408.95l-2.15,1.06c-.38.19-1.05-1.64-.67-1.8l1.74-.75c14.17-6.1,27.04-14.33,36.1-26.9,9.33-12.95,9.71-29.25,1.61-42.9-6.39-10.78-15.02-19.59-25.2-26.97l-13.74-9.96c2.18.41,4.22,1.33,6.08,2.61,17.63,12.1,34.17,26.71,39.82,48.17,3.32,12.63-3.85,26.97-12.55,36.25-8.66,9.23-19.43,15.42-31.05,21.18Z"/>
        <path class="cls-1" d="M92.73,34.63c-27.26,22.16-54.44,29.86-90.29,29.31-1.71-.66-2.41-1.98-.07-1.97l16.47-.41,9.16-.81c7.78-.68,15.54-2.58,22.86-4.94,15.24-4.91,28.49-12.17,40.86-22.18l29.22-23.61c4.03-3.26,7.55-6.53,12.04-9.09-6.41,6.84-13.66,12.06-20.95,17.99l-19.31,15.7Z"/>
        <path class="cls-1" d="M413.27,4.59c.87-1.31,2.23-2.56,3.07-2.92-9.53,17.46-26.91,32.42-46.88,34.84-23.75,2.88-52.29-15.51-64.37-35.44,9.98,10.18,18.82,20.65,31.77,26.95,30.81,15,57.76,4.56,76.41-23.43Z"/>
        <path class="cls-1" d="M715.6,29.57c11.56-1.91,16.66-15.15,15.34-27.1.61-2.06,1.66-2.53,1.75.01,2.15,13.96-5.99,27.25-19.68,29.3-5.07.76-10.39-.37-14.74-2.31-9.17-4.08-17.97-7.58-27.56-10.44-4.63-1.38-9.59-1.86-14.42-2.66-10.42-1.71-21.01-6.33-26.64-15.44,4.36,3.22,8.09,7.05,12.93,9.39,12.95,6.26,22.34,3.36,37.19,9.74,11.65,5.01,23.34,11.57,35.83,9.51Z"/>
        <path class="cls-1" d="M61.19,39.74C44.21,48.51,19.13,52.95,0,49.97c7.94-2.42,15.1-.35,22.66-1.4,12.85-1.79,25.36-4,37.09-9.66,17.3-8.35,31.7-20.57,44.67-34.51,1.25-1.34,2.67-2.59,4.24-2.59-13.5,16-29.35,28.57-47.47,37.93Z"/>
        <path class="cls-1" d="M556.41,138.25c-8.12,3.36-25.42,4.84-31.16-2.97-1.75-2.38-.2-7.13,1.98-9.13,13.34-12.26,42.98-17.91,45.45-3.56,1.33,7.71-9.76,12.97-16.27,15.66ZM551.03,137.98c9.06-1.12,24.49-10.07,19.36-17.66-1.31-1.95-5.25-4.55-7.57-4.57-24.25-.25-44.02,14.17-34.57,20.93,3.94,2.82,8.92,2.86,13.66,2.44l9.13-1.13Z"/>
        <path class="cls-1" d="M61.5,23.28c-15.9,9.89-42.58,17.74-61.5,13.57,7.23-1.77,13.68-.61,20.46-1.37,29.47-3.34,44.96-14.32,66.8-34.19-6.41,9.36-16.07,15.96-25.76,21.99Z"/>
        <path class="cls-1" d="M24.99,374.08c-4.75,7.2-17.73,19.19-23.55,20.89-.4.12-.88-1.37-.51-1.58l1.68-.93c8.62-4.76,16.27-11.11,21.42-19.72,9.7-16.22,3.27-33.43-8.92-46.11-4.35-4.52-9.13-8.12-13.66-12.37,9.26,4.32,15.56,11.88,21.35,19.62,4.41,5.9,6.68,12.96,7.72,20.49.93,6.71-1.73,13.95-5.52,19.7Z"/>
        <path class="cls-1" d="M82.6,547.42c-15.31-23.31-35.04-31.95-62.26-35.22-5.96-.71-12.61-.79-18.06.57-.08.02-.59-.7-1.41-1.75,6.87-1.92,11.6-1.32,19.27-.64,25.6,2.27,49.16,13.7,63.47,35.72l-1.01,1.31Z"/>
        <path class="cls-1" d="M69.27,547.53c-6.86-4.08-11.61-9.72-18.67-12.46-8.67-3.36-17.59-6.62-26.94-6.87l-22.94-.61c.77-2.8,19.22-1.69,21.95-1.4,9.89,1.08,19.77,2.99,28.46,7.46,7,3.6,13.47,7.76,18.15,13.88Z"/>
        <path class="cls-1" d="M381.19,1.62l1.28.74c-13.15,14.21-31.42,18.32-48.22,7.95-4.4-2.72-8.35-5.13-11.68-9.01l11.13,6.94c9.23,5.75,20.96,7.45,31.55,4.22,6.14-1.87,11.07-6.21,15.94-10.84Z"/>
        <path class="cls-1" d="M.36,23.47l10.65-1.4,9.69-1.46c13-1.96,25.4-6.06,36.18-13.76l7.49-5.35c-3.18,4.67-7.73,7.61-12.53,10.22-13,7.05-27.02,10.97-41.84,12.29-3.21.29-6.19,2.09-9.63-.55Z"/>
        <path class="cls-1" d="M193.15,534.85c-1.85-1.62-6.19-3.95-8-3.06-5.22,2.57-5.06,10.82-4.32,14.62.11.55-1.38,2.05-1.48,1.63-1.05-4.27-.53-9.85,1.49-14.2,1.83-3.94,6.41-4.76,9.63-2.4,6.64,4.85,12.07,9.58,18.72,15.8l-1.58.23-14.45-12.63Z"/>
        <path class="cls-1" d="M43.97,547.27c-1.21,1.62-12.04-2.04-19.31-3.2-8.22-1.31-16.08,1.46-24.65-1.49,13.68-1.94,31.4-.97,43.96,4.68Z"/>
        <path class="cls-1" d="M8.39,9.09c-3.03.44-6.02,1.22-8.14-.46,9.43-1.67,18.2-2.68,26.95-5.27l7.35-2.18c-5.59,3.68-12.06,5.88-19.35,6.94l-6.82.98Z"/>
        <path class="cls-1" d="M.79,339.81c8.29,6.79,8.25,21.22-.11,28.15,5.48-9.62,5.95-18.82.11-28.15Z"/>
        <path class="cls-1" d="M234.66,141.02c-7.33,6.94-15.27,12.08-23.67,16.82-15.96,4.42-32.76,2.38-43.9-10.11-7-7.86-10.33-17.43-12.51-27.66-1.06-4.96-.73-10.15.24-15.27,2.74-14.59,11.44-26.06,22.31-35.76,9.7-8.65,18.9-17,30.15-23.64,9.32-5.5,16.21-8.01,27.55-6.22,16.59,2.61,42.66,33.34,39.9,54.54-1.25,9.61-7.43,16.64-14.05,22.81l-9.88,9.21-16.13,15.28ZM214.23,154.3c5.73-3.08,11.14-6.77,15.92-11.21l31.1-28.85c7.11-6.6,11.96-14.27,11.8-24.49-.07-4.12-.45-8.78-2.1-12.62-4.02-9.37-9.89-17.11-16.91-24.42-6.93-7.22-15.65-12.75-26.09-12.7-9.71.05-25.79,9.1-33.15,15.58l-19.24,16.94c-10.95,9.64-17.9,21.71-19.38,36.6-1.46,14.63,3.84,29.63,14.33,39.95,10.92,10.74,32.99,10.97,43.72,5.21Z"/>
        <path class="cls-1" d="M751.93,472.68c-11.43,8.72-28.99,2.98-39.99-4.02-5.99-3.81-10.34-9.05-13.15-15.63-1.85-4.34-.89-8.69,1.94-12.52,6.2-8.37,17.39-10.58,27.18-7.49,22.57,7.12,34.93,31.34,24.02,39.66ZM752.55,469.83c7.71-10.01-8.08-32.18-26.94-35.74-3.82-.72-8.61-.41-12.65-.02-4.79.46-9.93,4.53-12.02,8.73-2.42,4.85-1.05,10.78,1.89,14.94,13.42,18.98,42.29,21.73,49.73,12.08Z"/>
        <path class="cls-1" d="M369.29,294.48c4.35,5.04,13.12,18.26,6.22,23.48-8.49,6.42-25.13-5.54-28.02-21.29-.39-2.15,1.31-5.83,2.66-7.21,4.8-4.94,14.26-.62,19.13,5.03ZM375.94,315.39c2.69-12.38-14.31-30.35-22.36-26.05-5.56,2.97-5.31,9.65-2.54,14.17,4.79,7.83,15.01,20.23,24.9,11.88Z"/>
        <path class="cls-1" d="M242.94,101.86c-8.29,8.22-28.03,20.65-40.16,21.91-4.6.48-10.44-3.12-13.33-6.23-4.68-5.03-4.77-11.17-4.64-17.86,5.26-17.27,16.39-31.68,32.94-39.68,6.41-3.1,14.85-3.17,21.03.31,9.51,5.35,14.27,15.75,14.29,26.4-2.92,5.57-5.79,10.86-10.12,15.16ZM250.38,77.42c-2.08-6.38-5.99-11.99-11.72-15.66-4.77-3.05-15.74-2.96-21.55-.01-10.89,5.54-18.73,14.08-25.14,24.34-5.99,9.58-8.67,26.1,1.41,33.03s21.49-.5,31.65-6c11.62-6.29,30.29-20.57,25.35-35.71Z"/>
      </g>
    </g>
  </g>
</svg>